HIERARCHY
ROOT root     
{
	OFFSET 0.0000 0.0000 0.0000
	CHANNELS 6 Xposition Yposition Zposition Zrotation Yrotation Xrotation
	JOINT pelvis   
	{
		OFFSET 0.0000 0.0000 0.0000
		CHANNELS 3 Zrotation Yrotation Xrotation
		JOINT thorax   
		{
			OFFSET 0.0000 23.0750 -5.0000
			CHANNELS 3 Zrotation Yrotation Xrotation
			JOINT rclavicle
			{
				OFFSET 0.0000 28.0009 0.0000
				CHANNELS 3 Zrotation Yrotation Xrotation
				JOINT rhumerus 
				{
					OFFSET -18.5725 5.5939 0.0000
					CHANNELS 3 Zrotation Yrotation Xrotation
					JOINT rradius  
					{
						OFFSET -24.8459 0.0000 0.0000
						CHANNELS 3 Zrotation Yrotation Xrotation
						JOINT rhand    
						{
							OFFSET -24.5477 0.0000 0.0000
							CHANNELS 3 Zrotation Yrotation Xrotation
							End Site
							{
								OFFSET -8.1826 0.0000 0.0000
							}
						}
					}
				}
			}
			JOINT lclavicle
			{
				OFFSET 0.0000 28.0009 0.0000
				CHANNELS 3 Zrotation Yrotation Xrotation
				JOINT lhumerus 
				{
					OFFSET 18.5725 5.5939 0.0000
					CHANNELS 3 Zrotation Yrotation Xrotation
					JOINT lradius  
					{
						OFFSET 24.8459 0.0000 0.0000
						CHANNELS 3 Zrotation Yrotation Xrotation
						JOINT lhand    
						{
							OFFSET 24.5477 0.0000 0.0000
							CHANNELS 3 Zrotation Yrotation Xrotation
							End Site
							{
								OFFSET 8.1826 0.0000 0.0000
							}
						}
					}
				}
			}
			JOINT head     
			{
				OFFSET 0.0000 35.2030 0.0000
				CHANNELS 3 Zrotation Yrotation Xrotation
				End Site
				{
					OFFSET 0.0000 11.7343 0.0000
				}
			}
		}
		JOINT rfemur   
		{
			OFFSET -8.2817 0.0000 0.0000
			CHANNELS 3 Zrotation Yrotation Xrotation
			JOINT rtibia   
			{
				OFFSET 0.0000 -43.3627 0.0000
				CHANNELS 3 Zrotation Yrotation Xrotation
				JOINT rfoot    
				{
					OFFSET 0.0000 -38.2947 0.0000
					CHANNELS 3 Zrotation Yrotation Xrotation
					JOINT rtoes    
					{
						OFFSET 0.0000 0.0000 16.6054
						CHANNELS 3 Zrotation Yrotation Xrotation
						End Site
						{
							OFFSET 0.0000 0.0000 5.5351
						}
					}
				}
			}
		}
		JOINT lfemur   
		{
			OFFSET 8.2817 0.0000 0.0000
			CHANNELS 3 Zrotation Yrotation Xrotation
			JOINT ltibia   
			{
				OFFSET 0.0000 -43.3627 0.0000
				CHANNELS 3 Zrotation Yrotation Xrotation
				JOINT lfoot    
				{
					OFFSET 0.0000 -38.2947 0.0000
					CHANNELS 3 Zrotation Yrotation Xrotation
					JOINT ltoes    
					{
						OFFSET 0.0000 0.0000 16.6054
						CHANNELS 3 Zrotation Yrotation Xrotation
						End Site
						{
							OFFSET 0.0000 0.0000 5.5351
						}
					}
				}
			}
		}
	}
}
MOTION
Frames: 11
Frame Time: .0333333
15.841 78.505 5.8534 -23.6371 -78.2004 53.5267 0 -0 0 -3.47186 -7.85117 18.3994 24.3555 -14.9718 -6.19842e-05 46.2524 -3.72873 21.401 -180 75.4578 -180 -4.50611 3.26893 -0.128602 -12.4145 8.59465 2.31427e-05 -51.9309 8.21354 7.07954 -180 -70.5169 180 6.78709 0.574801 0.0341008 13.2453 -1.08162 -27.0674 7.3372 -9.08981 -70.8396 -0 -0 73.4031 6.04699e-05 -21.8972 21.7761 -8.48123 -3.56666e-05 -65.9269 -2.53186 1.09157 -62.3905 -0 -0 53.9282 -6.87838e-06 11.1865 -10.3871 -2.04207 -5.78229e-07 -28.6389 
15.656 78.679 5.8436 -24.6942 -77.7296 53.981 0 -0 0 -3.12493 -8.30896 18.6628 24.2338 -15.0404 -6.65656e-05 46.1231 -3.86487 21.8577 -180 75.4578 -180 -4.23101 3.20875 -0.118602 -12.4322 8.53278 3.60701e-05 -51.8364 8.33718 6.75688 180 -70.531 -180 7.15891 0.629102 0.039401 13.0762 -0.580079 -26.3487 7.57958 -9.05573 -71.5795 -0 -0 75.0404 0.000137689 -21.5921 24.6953 -9.3891 1.30222e-05 -65.9023 -2.15827 1.28476 -61.585 -0 -0 53.6449 -8.44033e-06 10.9671 -10.3425 -1.99248 4.92285e-07 -28.8117 
15.471 78.879 5.8283 -25.7658 -77.2494 54.4613 0 -0 0 -2.7536 -8.78436 18.9079 24.0996 -15.1063 9.27947e-06 46.0059 -3.98481 22.2982 -180 75.432 -180 -3.98839 3.16326 -0.110202 -12.4537 8.46867 -1.51982e-05 -51.75 8.49895 6.46009 180 -70.5655 180 7.53158 0.680497 0.0448006 12.9096 -0.0637854 -25.569 7.83975 -9.00707 -72.3366 -0 -0 76.6437 -2.42498e-06 -20.9739 27.3816 -9.99859 -1.80493e-05 -65.9135 -1.75162 1.4771 -60.7591 -0 -0 53.2934 -1.70783e-05 10.7579 -10.2539 -1.93707 3.18267e-06 -29.0005 
15.288 79.104 5.8099 -26.8332 -76.79 54.9568 0 -0 0 -2.38259 -9.25704 19.1214 23.9656 -15.1687 5.71029e-05 45.8969 -4.09826 22.7195 -180 75.3795 -180 -3.78029 3.13769 -0.1036 -12.4685 8.40447 1.62027e-05 -51.6688 8.69061 6.20105 -180 -70.6267 180 7.88903 0.725803 0.0500005 12.7557 0.45932 -24.7259 8.10406 -8.93872 -73.124 -0 -0 78.2139 -2.08912e-05 -20.0335 29.7669 -10.2611 9.28398e-05 -66.1332 -1.33133 1.67171 -59.9216 -0 -0 52.8718 5.8171e-06 10.562 -10.122 -1.87689 -6.22381e-06 -29.1872 
15.108 79.353 5.7885 -27.9044 -76.3535 55.4787 0 -0 0 -2.01138 -9.71133 19.2992 23.8303 -15.2322 5.21712e-05 45.7972 -4.20702 23.1136 -180 75.2934 -180 -3.60696 3.13498 -0.0986983 -12.4806 8.34124 2.5429e-05 -51.5864 8.89834 5.98767 180 -70.7137 180 8.21632 0.762997 0.0547999 12.6125 0.980409 -23.8235 8.37426 -8.84745 -73.9458 -0 -0 79.7438 -9.83357e-06 -18.7894 31.7997 -10.1642 -9.65663e-06 -66.5435 -0.900996 1.87256 -59.0755 -0 -0 52.3814 -6.29671e-07 10.3802 -9.94853 -1.8126 1.4081e-06 -29.3841 
14.933 79.624 5.7663 -29.0012 -75.9428 56.0549 0 -0 0 -1.64551 -10.132 19.4412 23.6949 -15.2969 -0.000154208 45.7105 -4.31561 23.4785 -180 75.183 -180 -3.4677 3.15651 -0.095601 -12.4927 8.28126 6.37979e-06 -51.502 9.112 5.82463 -180 -70.8295 180 8.49978 0.789899 0.0586993 12.476 1.49293 -22.871 8.64972 -8.73555 -74.8077 -0 -0 81.2266 -5.22856e-05 -17.2867 33.4407 -9.73151 -4.16655e-06 -67.0773 -0.470712 2.0848 -58.2253 -0 -0 51.8235 -1.96916e-06 10.2135 -9.73621 -1.74515 1.47273e-05 -29.5827 
14.764 79.913 5.7455 -30.1154 -75.5842 56.6786 0 -0 0 -1.29345 -10.5045 19.5458 23.5585 -15.3593 8.80293e-05 45.6387 -4.42697 23.8105 -180 75.0396 -180 -3.36081 3.20073 -0.0939011 -12.5073 8.22729 -1.4115e-06 -51.4091 9.32373 5.71267 180 -70.9669 180 8.72837 0.804808 0.0613992 12.3396 1.99388 -21.8799 8.92547 -8.60185 -75.7187 -0 -0 82.6458 -1.96551e-05 -15.6041 34.6859 -9.03057 5.14493e-05 -67.7459 -0.0538018 2.31519 -57.3742 -0 -0 51.2006 -1.12287e-06 10.0629 -9.48844 -1.6756 -5.6457e-06 -29.7735 
14.603 80.22 5.7275 -31.2792 -75.2655 57.381 0 -0 0 -0.939452 -10.826 19.6219 23.414 -15.4213 0.000110541 45.5849 -4.53898 24.1057 -180 74.8679 -180 -3.28421 3.26506 -0.0936001 -12.5359 8.18046 3.56308e-05 -51.3077 9.52502 5.64878 180 -71.1228 180 8.89547 0.807602 0.0628011 12.186 2.47988 -20.8707 9.21222 -8.45468 -76.6773 -0 -0 83.982 -0.000128697 -13.826 35.5389 -8.14066 -5.03492e-05 -68.3294 0.353878 2.56525 -56.5224 -0 -0 50.5177 1.20348e-05 9.92945 -9.20472 -1.60398 1.89819e-05 -29.9951 
14.453 80.54 5.716 -32.4926 -75.0116 58.1659 0 -0 0 -0.605084 -11.0847 19.6681 23.2622 -15.4784 -5.61881e-05 45.5473 -4.65455 24.3678 -180 74.6677 -180 -3.23601 3.34443 -0.0944974 -12.5784 8.14554 2.39116e-05 -51.1948 9.71711 5.62783 180 -71.2844 180 8.99628 0.796903 0.0626989 12.0143 2.95392 -19.8581 9.49482 -8.28874 -77.6967 -0 -0 85.2131 8.81422e-05 -12.0767 36.0546 -7.17746 3.26804e-05 -68.9716 0.729451 2.8444 -55.6757 -0 -0 49.7759 2.82008e-06 9.81493 -8.89174 -1.5317 -7.69482e-06 -30.1958 
14.314 80.871 5.7117 -33.7727 -74.8107 59.0501 0 -0 0 -0.274691 -11.2847 19.6966 23.0955 -15.5258 -8.54614e-05 45.5292 -4.77036 24.5964 -180 74.4471 -180 -3.21422 3.4344 -0.0964 -12.6464 8.12284 -2.56131e-05 -51.0695 9.89805 5.64098 -180 -71.4478 180 9.03297 0.774199 0.0612007 11.804 3.41639 -18.8642 9.78288 -8.11195 -78.7762 -0 -0 86.316 7.19418e-05 -10.4476 36.2841 -6.22774 3.32281e-05 -69.4886 1.07903 3.15146 -54.8353 -0 -0 48.9815 5.69101e-07 9.72083 -8.54964 -1.45888 4.64348e-06 -30.4122 
14.189 81.21 5.7166 -35.1335 -74.6683 60.0466 0 -0 0 0.0484946 -11.4274 19.7126 22.911 -15.5597 1.73072e-05 45.5288 -4.88502 24.7959 -180 74.1939 -180 -3.21691 3.52984 -0.0991019 -12.7401 8.11476 3.838e-05 -50.9324 10.072 5.67957 -180 -71.5961 180 9.00964 0.740603 0.0584005 11.5512 3.87125 -17.9079 10.074 -7.92549 -79.9207 -0 -0 87.2701 -1.03974e-05 -9.02234 36.3064 -5.37109 4.06342e-05 -69.8822 1.39618 3.4879 -54.0052 -0 -0 48.1448 5.74666e-07 9.64848 -8.18196 -1.38595 1.0655e-05 -30.6302 
